<svg xmlns="http://www.w3.org/2000/svg" width="40" height="40" viewBox="0 0 40 40" fill="none">
  <ellipse cx="20" cy="34.5" rx="13.5" ry="3" fill="#1B5E20" opacity="0.55"/>
  <ellipse cx="20" cy="33.6" rx="8.5" ry="2" fill="#2E7D32" opacity="0.7"/>

  <path d="M18.4 19c.35 3.4.55 7 .65 10.5h2.1c.1-3.5.3-7.1.65-10.5-.85-.25-1.85-.4-2.85-.4s-2 .15-2.85.4z" fill="#A1887F"/>

  <circle cx="13.2" cy="14.2" r="6.3" fill="#388E3C"/>
  <circle cx="26.8" cy="14.2" r="6.3" fill="#388E3C"/>
  <circle cx="20" cy="10.2" r="7.1" fill="#43A047"/>
  <circle cx="15.8" cy="16.8" r="5.1" fill="#66BB6A"/>
  <circle cx="24.2" cy="16.8" r="5.1" fill="#66BB6A"/>
  <circle cx="20" cy="14.2" r="5.6" fill="#1B5E20"/>
  <ellipse cx="11" cy="9.4" rx="1.5" ry=".95" transform="rotate(-32 11 9.4)" fill="#81C784"/>
  <ellipse cx="29" cy="9.6" rx="1.5" ry=".95" transform="rotate(28 29 9.6)" fill="#81C784"/>
  <ellipse cx="20" cy="6.5" rx="1.4" ry=".85" fill="#A5D6A7"/>

  <g transform="translate(7.6 25.4)">
    <path d="M1 .4h3.1c1.35 0 2.25.8 2.25 1.95 0 .85-.5 1.5-1.25 1.75L6.4 8.2H4.7L3.45 4.3H2.35V8.2H.55V.4H1zm1.35 1.25v1.55h1.55c.55 0 .9-.3.9-.78s-.35-.77-.9-.77H2.35z" fill="#FFCA28"/>
    <circle cx="2.05" cy="1.85" r=".32" fill="#3E2723"/>
    <circle cx="3.55" cy="1.85" r=".32" fill="#3E2723"/>
    <path d="M2.2 2.75c.45.4 1.35.4 1.8 0" stroke="#3E2723" stroke-width=".4" stroke-linecap="round" fill="none"/>
  </g>

  <g transform="translate(26.2 25.4)">
    <path d="M.55.4h2.35c2.05 0 3.45 1.45 3.45 3.7S4.95 7.8 2.9 7.8H.55V.4zm1.8 1.3v3.8h.55c1.15 0 1.85-.85 1.85-1.9S4.05 1.7 2.9 1.7h-.55z" fill="#AED581"/>
    <circle cx="2.1" cy="1.85" r=".32" fill="#3E2723"/>
    <circle cx="3.55" cy="1.85" r=".32" fill="#3E2723"/>
    <path d="M2.25 2.75c.45.4 1.3.4 1.75 0" stroke="#3E2723" stroke-width=".4" stroke-linecap="round" fill="none"/>
  </g>
</svg>
